<svg height="619px" viewBox="-144 0 464 464" width="619px" xmlns="http://www.w3.org/2000/svg"><path d="m88 360v-328c0-17.671875-14.328125-32-32-32s-32 14.328125-32 32v328c-15.109375 11.332031-24 29.113281-24 48 0 30.929688 25.070312 56 56 56s56-25.070312 56-56c0-18.886719-8.890625-36.667969-24-48zm0 0" fill="#a3d4f7"/><g fill="#92aeba"><path d="m168 336h-48c-4.417969 0-8-3.582031-8-8s3.582031-8 8-8h48c4.417969 0 8 3.582031 8 8s-3.582031 8-8 8zm0 0"/><path d="m152 304h-32c-4.417969 0-8-3.582031-8-8s3.582031-8 8-8h32c4.417969 0 8 3.582031 8 8s-3.582031 8-8 8zm0 0"/><path d="m168 272h-48c-4.417969 0-8-3.582031-8-8s3.582031-8 8-8h48c4.417969 0 8 3.582031 8 8s-3.582031 8-8 8zm0 0"/><path d="m152 240h-32c-4.417969 0-8-3.582031-8-8s3.582031-8 8-8h32c4.417969 0 8 3.582031 8 8s-3.582031 8-8 8zm0 0"/><path d="m168 208h-48c-4.417969 0-8-3.582031-8-8s3.582031-8 8-8h48c4.417969 0 8 3.582031 8 8s-3.582031 8-8 8zm0 0"/><path d="m152 176h-32c-4.417969 0-8-3.582031-8-8s3.582031-8 8-8h32c4.417969 0 8 3.582031 8 8s-3.582031 8-8 8zm0 0"/><path d="m168 144h-48c-4.417969 0-8-3.582031-8-8s3.582031-8 8-8h48c4.417969 0 8 3.582031 8 8s-3.582031 8-8 8zm0 0"/><path d="m152 112h-32c-4.417969 0-8-3.582031-8-8s3.582031-8 8-8h32c4.417969 0 8 3.582031 8 8s-3.582031 8-8 8zm0 0"/><path d="m168 80h-48c-4.417969 0-8-3.582031-8-8s3.582031-8 8-8h48c4.417969 0 8 3.582031 8 8s-3.582031 8-8 8zm0 0"/></g><path d="m64 377.015625v-185.015625c0-4.417969-3.582031-8-8-8s-8 3.582031-8 8v185.015625c-14.175781 3.050781-24.222656 15.6875-24 30.183594 0 17.675781 14.328125 32 32 32s32-14.324219 32-32c.222656-14.496094-9.824219-27.132813-24-30.183594zm0 0" fill="#ff5b42"/></svg>