<svg height="619px" viewBox="0 0 464 464" width="619px" xmlns="http://www.w3.org/2000/svg"><path d="m8 464v-432c0-8.835938 7.164062-16 16-16s16 7.164062 16 16v432" fill="#92aeba"/><g fill="#ff5b42"><path d="m263.960938 48c-47.960938 0-47.960938-32-95.960938-32v128c48 0 48 32 95.960938 32 47.960937 0 48-32 96-32s48 32 96 32v-128c-48 0-48-32-96-32s-47.960938 32-96 32zm0 0"/><path d="m464 184h-8c-18.9375.296875-37.421875-5.816406-52.449219-17.34375-25.761719-19.542969-61.382812-19.542969-87.144531 0-31.132812 23.125-73.738281 23.125-104.871094 0-12.363281-9.804688-27.757812-14.988281-43.535156-14.65625h-1.886719l-128-64h-30.113281v-16h30.113281l128-64h1.886719c18.929688-.296875 37.402344 5.816406 52.414062 17.34375 12.367188 9.804688 27.769532 14.988281 43.546876 14.65625 15.785156.335938 31.191406-4.847656 43.566406-14.65625 31.144531-23.117188 73.753906-23.117188 104.898437 0 12.375 9.808594 27.785157 14.992188 43.574219 14.65625h8zm-294.078125-48c18.265625.128906 35.996094 6.210938 50.492187 17.328125 25.75 19.542969 61.363282 19.542969 87.113282 0 31.144531-23.117187 73.753906-23.117187 104.898437 0 10.257813 8.050781 22.597657 13.019531 35.574219 14.328125v-111.953125c-16.144531-1.308594-31.570312-7.226563-44.449219-17.046875-25.761719-19.542969-61.382812-19.542969-87.144531 0-15.027344 11.527344-33.507812 17.640625-52.445312 17.34375-18.929688.296875-37.40625-5.816406-52.425782-17.34375-11.863281-9.40625-26.539062-14.566406-41.679687-14.65625l-112 56zm0 0"/><path d="m160 16h16v128h-16zm0 0"/></g><path d="m16 0h16c8.835938 0 16 7.164062 16 16v16c0 8.835938-7.164062 16-16 16h-16c-8.835938 0-16-7.164062-16-16v-16c0-8.835938 7.164062-16 16-16zm0 0" fill="#92aeba"/></svg>